<?xml version="1.0" encoding="UTF-8" standalone="no"?>
<!-- Created with Inkscape (http://www.inkscape.org/) -->

<svg
   width="140.44064mm"
   height="22.318752mm"
   viewBox="0 0 140.44065 22.318753"
   version="1.1"
   id="svg1"
   inkscape:version="1.4 (1:1.4+202410161351+e7c3feb100)"
   sodipodi:docname="logo.svg"
   xmlns:inkscape="http://www.inkscape.org/namespaces/inkscape"
   xmlns:sodipodi="http://sodipodi.sourceforge.net/DTD/sodipodi-0.dtd"
   xmlns="http://www.w3.org/2000/svg"
   xmlns:svg="http://www.w3.org/2000/svg">
  <sodipodi:namedview
     id="namedview1"
     pagecolor="#ffffff"
     bordercolor="#000000"
     borderopacity="0.25"
     inkscape:showpageshadow="2"
     inkscape:pageopacity="0.0"
     inkscape:pagecheckerboard="0"
     inkscape:deskcolor="#d1d1d1"
     inkscape:document-units="mm"
     inkscape:zoom="1.4449635"
     inkscape:cx="126.99283"
     inkscape:cy="53.634572"
     inkscape:window-width="1920"
     inkscape:window-height="1016"
     inkscape:window-x="0"
     inkscape:window-y="27"
     inkscape:window-maximized="1"
     inkscape:current-layer="layer1" />
  <defs
     id="defs1" />
  <g
     inkscape:label="Layer 1"
     inkscape:groupmode="layer"
     id="layer1"
     transform="translate(-65.043812,-137.34063)">
    <path
       style="font-weight:500;font-size:16.2539px;line-height:1.4;font-family:Unbounded;-inkscape-font-specification:'Unbounded Medium';letter-spacing:0px;word-spacing:0px;stroke-width:0.83771;stroke-linecap:square;stroke-miterlimit:2.1"
       d="m 103.99534,148.92259 0.26006,-0.55264 q 1.41409,0.0325 2.34056,0.45511 0.92647,0.40635 1.36533,1.12152 0.43885,0.69892 0.43885,1.60914 0,0.97523 -0.47136,1.73916 -0.45511,0.76394 -1.34907,1.20279 -0.89397,0.43886 -2.24304,0.43886 h -8.549554 l 0.942726,-6.25775 -0.942726,-5.93268 h 8.240724 q 1.69041,0 2.61688,0.79644 0.94273,0.78019 0.94273,2.16177 0,0.74768 -0.35759,1.4466 -0.34133,0.69892 -1.13777,1.18654 -0.78019,0.47136 -2.09675,0.58514 z m -5.477569,5.31502 -1.056503,-1.33282 h 6.306512 q 0.87771,0 1.34907,-0.40635 0.48762,-0.4226 0.48762,-1.17028 0,-0.76393 -0.55263,-1.20279 -0.55263,-0.45511 -1.62539,-0.45511 h -5.136233 v -1.98297 h 4.811153 q 0.73143,0 1.20279,-0.40635 0.48762,-0.4226 0.48762,-1.17028 0,-0.56889 -0.40635,-0.94273 -0.40635,-0.39009 -1.17028,-0.39009 h -5.753882 l 1.056503,-1.33282 0.861457,5.23376 z m 11.458979,-8.64707 1.34908,0.26006 1.36533,-0.26006 v 9.34599 h -2.71441 z m 1.34908,-0.95898 q -0.73143,0 -1.20279,-0.37384 -0.45511,-0.3901 -0.45511,-1.024 0,-0.65016 0.45511,-1.024 0.47136,-0.39009 1.20279,-0.39009 0.74768,0 1.20279,0.39009 0.45511,0.37384 0.45511,1.024 0,0.6339 -0.45511,1.024 -0.45511,0.37384 -1.20279,0.37384 z m 2.97445,1.0565 h 2.74691 l 0.55263,3.33205 v 5.91642 h -2.7144 v -6.20899 z m 7.80187,-0.0975 v 2.34056 q -0.4226,-0.0975 -0.8452,-0.14629 -0.4226,-0.0488 -0.79644,-0.0488 -0.8127,0 -1.46285,0.34133 -0.65016,0.34133 -1.024,1.05651 -0.37384,0.71517 -0.37384,1.80418 l -0.56888,-0.68266 q 0.0975,-0.99149 0.35758,-1.85295 0.26006,-0.87771 0.71517,-1.52787 0.47137,-0.66641 1.15403,-1.04025 0.68266,-0.39009 1.62539,-0.39009 0.30882,0 0.61765,0.0488 0.32508,0.0325 0.60139,0.0975 z m 1.25153,0 1.34908,0.26006 1.36532,-0.26006 v 9.34599 h -2.7144 z m 1.34908,-0.95898 q -0.73143,0 -1.20279,-0.37384 -0.45511,-0.3901 -0.45511,-1.024 0,-0.65016 0.45511,-1.024 0.47136,-0.39009 1.20279,-0.39009 0.74768,0 1.20279,0.39009 0.4551,0.37384 0.4551,1.024 0,0.6339 -0.4551,1.024 -0.45511,0.37384 -1.20279,0.37384 z m 2.97445,1.0565 h 2.7144 l 0.58514,3.5271 v 5.72137 h -2.7144 v -6.12772 z m 6.82664,-0.24381 q 1.31656,0 2.24303,0.53638 0.92648,0.52012 1.41409,1.49536 0.48762,0.97523 0.48762,2.32431 v 5.13623 h -2.7144 v -4.72989 q 0,-1.25155 -0.60139,-1.88545 -0.6014,-0.65015 -1.75543,-0.65015 -0.78018,0 -1.38158,0.35758 -0.58514,0.34133 -0.91022,0.95898 -0.30882,0.61765 -0.30882,1.47911 l -0.89396,-0.47137 q 0.16253,-1.46285 0.78018,-2.47059 0.61765,-1.00774 1.56038,-1.54412 0.94272,-0.53638 2.0805,-0.53638 z m 14.57973,9.49228 -0.3901,-3.49459 0.52013,-1.10527 -0.50387,-1.34907 0.73142,-6.56657 h 2.81193 l -0.89397,7.70434 0.53638,4.81116 z m 0.66641,-4.61611 q -0.26007,1.46285 -0.95898,2.56812 -0.68267,1.08901 -1.73917,1.6904 -1.04025,0.6014 -2.34056,0.6014 -1.34908,0 -2.38933,-0.6014 -1.04024,-0.61765 -1.62539,-1.70666 -0.56888,-1.10526 -0.56888,-2.55186 0,-1.46285 0.56888,-2.55186 0.58515,-1.10527 1.62539,-1.70666 1.04025,-0.61765 2.38933,-0.61765 1.30031,0 2.34056,0.6014 1.0565,0.60139 1.75542,1.70665 0.69892,1.08902 0.94273,2.56812 z m -6.8754,0 q 0,0.8127 0.32508,1.43034 0.34133,0.61765 0.92647,0.97524 0.58514,0.34133 1.34907,0.34133 0.76393,0 1.43034,-0.34133 0.68267,-0.35759 1.20279,-0.97524 0.52013,-0.61764 0.8127,-1.43034 -0.29257,-0.81269 -0.8127,-1.43034 -0.52012,-0.6339 -1.20279,-0.97524 -0.66641,-0.35758 -1.43034,-0.35758 -0.76393,0 -1.34907,0.35758 -0.58514,0.34134 -0.92647,0.97524 -0.32508,0.61765 -0.32508,1.43034 z m 16.01005,4.85992 q -1.64164,0 -2.94195,-0.6014 -1.28406,-0.61765 -2.03174,-1.72291 -0.73142,-1.10527 -0.73142,-2.56812 0,-1.44659 0.69891,-2.53561 0.71517,-1.08901 1.95047,-1.6904 1.2353,-0.61765 2.81193,-0.61765 1.60913,0 2.76316,0.71517 1.15403,0.69892 1.77167,1.98298 0.63391,1.28406 0.63391,3.02322 h -8.45203 v -1.80418 h 6.98918 l -1.05651,0.65016 q -0.065,-0.8127 -0.40635,-1.38158 -0.32507,-0.56889 -0.89396,-0.87772 -0.56889,-0.30882 -1.33282,-0.30882 -0.82895,0 -1.4466,0.34133 -0.60139,0.32508 -0.94272,0.92647 -0.32508,0.58515 -0.32508,1.38159 0,0.95898 0.4226,1.64164 0.4226,0.68266 1.2353,1.04025 0.81269,0.35759 1.96672,0.35759 1.04025,0 2.09675,-0.29257 1.0565,-0.30883 1.90171,-0.86146 v 1.82044 q -0.91022,0.65015 -2.12926,1.02399 -1.20279,0.35759 -2.55187,0.35759 z m 6.06266,-9.49228 h 2.74691 l 0.55263,3.33205 v 5.91642 h -2.7144 v -6.20899 z m 7.80187,-0.0975 v 2.34056 q -0.4226,-0.0975 -0.8452,-0.14629 -0.4226,-0.0488 -0.79644,-0.0488 -0.8127,0 -1.46285,0.34133 -0.65016,0.34133 -1.024,1.05651 -0.37384,0.71517 -0.37384,1.80418 l -0.56888,-0.68266 q 0.0975,-0.99149 0.35758,-1.85295 0.26006,-0.87771 0.71517,-1.52787 0.47137,-0.66641 1.15403,-1.04025 0.68266,-0.39009 1.62539,-0.39009 0.30882,0 0.61765,0.0488 0.32508,0.0325 0.60139,0.0975 z m 17.53791,4.06347 q -0.0163,1.10527 -0.43885,2.11301 -0.40635,0.99149 -1.17028,1.77167 -0.76394,0.76394 -1.88546,1.20279 -1.12151,0.43886 -2.60062,0.43886 -1.43034,0 -2.68189,-0.4226 -1.2353,-0.43886 -2.17803,-1.25155 -0.92647,-0.8127 -1.44659,-1.98298 -0.52013,-1.18654 -0.52013,-2.68189 0,-1.49536 0.52013,-2.66564 0.53638,-1.18654 1.4791,-1.99923 0.94273,-0.8127 2.21053,-1.2353 1.26781,-0.43886 2.76317,-0.43886 1.95046,0 3.38081,0.61765 1.43034,0.6014 2.30805,1.67415 0.89396,1.07276 1.10527,2.45434 h -2.77942 q -0.16254,-0.74768 -0.71517,-1.28405 -0.53638,-0.53638 -1.38158,-0.82895 -0.82895,-0.29257 -1.91796,-0.29257 -1.28406,0 -2.22679,0.47136 -0.92647,0.45511 -1.4466,1.34907 -0.50387,0.89397 -0.50387,2.17803 0,1.28405 0.53638,2.19427 0.53638,0.91022 1.52787,1.39784 0.99149,0.47136 2.34056,0.47136 1.31657,0 2.30805,-0.40635 0.99149,-0.4226 1.56038,-1.17028 0.58514,-0.76393 0.66641,-1.80418 z m -5.34753,1.12152 v -1.99923 h 6.32277 v 6.16023 h -1.98298 l -0.37384,-4.94119 0.56889,0.78019 z m 8.30574,-5.18499 1.34907,0.26006 1.36533,-0.26006 v 9.34599 h -2.7144 z m 1.34907,-0.95898 q -0.73143,0 -1.20279,-0.37384 -0.45511,-0.3901 -0.45511,-1.024 0,-0.65016 0.45511,-1.024 0.47136,-0.39009 1.20279,-0.39009 0.74768,0 1.20279,0.39009 0.45511,0.37384 0.45511,1.024 0,0.6339 -0.45511,1.024 -0.45511,0.37384 -1.20279,0.37384 z m 3.41331,-2.21053 h 2.7144 v 12.5155 h -2.7144 z m 4.76238,0 h 2.7144 v 12.5155 h -2.7144 z"
       id="text1"
       aria-label="Birinder Gill" />
    <g
       id="g7"
       transform="translate(0,-0.96131032)">
      <g
         id="g1"
         transform="translate(0,-1.318058)">
        <rect
           style="opacity:1;fill:#e3ff04;fill-opacity:1;stroke-width:0.222507;stroke-linecap:square;stroke-miterlimit:2.1"
           id="rect1"
           width="9.2949266"
           height="20.327795"
           x="67.744644"
           y="139.62"
           ry="4.6474633" />
        <rect
           style="opacity:1;fill:#e3ff04;fill-opacity:1;stroke-width:0.180114;stroke-linecap:square;stroke-miterlimit:2.1"
           id="rect3"
           width="6.0905495"
           height="20.327795"
           x="67.744644"
           y="139.62"
           ry="2.1755128" />
        <rect
           style="opacity:1;fill:#e3ff04;fill-opacity:1;stroke-width:0.270521;stroke-linecap:square;stroke-miterlimit:2.1"
           id="rect2"
           width="12.682411"
           height="22.021536"
           x="147.33371"
           y="-89.834518"
           ry="6.3412056"
           transform="rotate(90)" />
      </g>
      <g
         id="g6"
         transform="translate(-2.7008323,0.6045684)"
         style="fill:#c0d803;fill-opacity:1">
        <rect
           style="opacity:1;fill:#c0d803;fill-opacity:1;stroke-width:0.222507;stroke-linecap:square;stroke-miterlimit:2.1"
           id="rect4"
           width="9.2949266"
           height="20.327795"
           x="67.744644"
           y="139.62"
           ry="4.6474633" />
        <rect
           style="opacity:1;fill:#c0d803;fill-opacity:1;stroke-width:0.180114;stroke-linecap:square;stroke-miterlimit:2.1"
           id="rect5"
           width="6.0905495"
           height="20.327795"
           x="67.744644"
           y="139.62"
           ry="2.1755128" />
        <rect
           style="opacity:1;fill:#c0d803;fill-opacity:1;stroke-width:0.270521;stroke-linecap:square;stroke-miterlimit:2.1"
           id="rect6"
           width="12.682411"
           height="22.021536"
           x="147.33371"
           y="-89.834518"
           ry="6.3412056"
           transform="rotate(90)" />
      </g>
    </g>
  </g>
</svg>
