<?xml version="1.0" encoding="UTF-8" standalone="no"?>
<!-- Created with Inkscape (http://www.inkscape.org/) -->

<svg
   width="174.33699mm"
   height="30.998518mm"
   viewBox="0 0 174.337 30.998519"
   version="1.1"
   id="svg1"
   inkscape:version="1.4.2 (1:1.4.2+202505120738+ebf0e940d0)"
   sodipodi:docname="logo.svg"
   xmlns:inkscape="http://www.inkscape.org/namespaces/inkscape"
   xmlns:sodipodi="http://sodipodi.sourceforge.net/DTD/sodipodi-0.dtd"
   xmlns="http://www.w3.org/2000/svg"
   xmlns:svg="http://www.w3.org/2000/svg">
  <sodipodi:namedview
     id="namedview1"
     pagecolor="#ffffff"
     bordercolor="#000000"
     borderopacity="0.25"
     inkscape:showpageshadow="2"
     inkscape:pageopacity="0.0"
     inkscape:pagecheckerboard="0"
     inkscape:deskcolor="#d1d1d1"
     inkscape:document-units="mm"
     inkscape:zoom="2.889927"
     inkscape:cx="137.54673"
     inkscape:cy="94.639068"
     inkscape:window-width="1920"
     inkscape:window-height="1016"
     inkscape:window-x="0"
     inkscape:window-y="27"
     inkscape:window-maximized="1"
     inkscape:current-layer="g9" />
  <defs
     id="defs1">
    <clipPath
       clipPathUnits="userSpaceOnUse"
       id="clipPath13">
      <path
         d="M 0,500 H 500 V 0 H 0 Z"
         transform="translate(-308.33291,-324.27571)"
         id="path13" />
    </clipPath>
    <clipPath
       clipPathUnits="userSpaceOnUse"
       id="clipPath15">
      <path
         d="M 0,500 H 500 V 0 H 0 Z"
         transform="translate(-308.33291,-307.60901)"
         id="path15" />
    </clipPath>
  </defs>
  <g
     inkscape:label="Layer 1"
     inkscape:groupmode="layer"
     id="layer1"
     transform="translate(-21.049618,-125.66464)">
    <path
       style="font-weight:500;font-size:16.2539px;line-height:1.4;font-family:Unbounded;-inkscape-font-specification:'Unbounded Medium';letter-spacing:0px;word-spacing:0px;stroke-width:1.02622;stroke-linecap:square;stroke-miterlimit:2.1;fill:#000000;fill-opacity:1"
       d="m 71.059655,142.46424 0.318581,-0.67701 q 1.732299,0.0398 2.867251,0.55753 1.13495,0.49778 1.672566,1.37389 0.537603,0.85619 0.537603,1.97123 0,1.19469 -0.577429,2.13053 -0.557522,0.93584 -1.652648,1.47345 -1.095137,0.53761 -2.747784,0.53761 H 61.004356 l 1.154866,-7.66591 -1.154866,-7.2677 h 10.095112 q 2.0708,0 3.20575,0.97567 1.154871,0.95575 1.154871,2.64822 0,0.91592 -0.438057,1.77213 -0.41814,0.85619 -1.3938,1.45354 -0.955755,0.57743 -2.568577,0.71682 z m -6.710171,6.51103 -1.294246,-1.63274 h 7.725651 q 1.075218,0 1.652647,-0.49778 0.597348,-0.5177 0.597348,-1.43363 0,-0.93584 -0.676987,-1.47346 -0.676987,-0.55751 -1.991148,-0.55751 h -6.292025 v -2.4292 h 5.893794 q 0.896022,0 1.473451,-0.49778 0.597347,-0.5177 0.597347,-1.43363 0,-0.69691 -0.49779,-1.15487 -0.497789,-0.47787 -1.433625,-0.47787 h -7.048663 l 1.294246,-1.63274 1.055308,6.4115 z m 14.037563,-10.59289 1.652659,0.31858 1.672568,-0.31858 v 11.44909 h -3.325227 z m 1.652659,-1.17478 q -0.896022,0 -1.473451,-0.45796 -0.557521,-0.47789 -0.557521,-1.25443 0,-0.79647 0.557521,-1.25443 0.577429,-0.47787 1.473451,-0.47787 0.915929,0 1.473451,0.47787 0.557522,0.45796 0.557522,1.25443 0,0.77654 -0.557522,1.25443 -0.557522,0.45796 -1.473451,0.45796 z m 3.643784,1.29424 h 3.365039 l 0.676988,4.08185 v 7.24778 h -3.325215 v -7.60618 z m 9.557504,-0.11944 v 2.86725 q -0.517696,-0.11944 -1.035393,-0.1792 -0.517697,-0.0598 -0.975661,-0.0598 -0.995579,0 -1.792032,0.41814 -0.796463,0.41814 -1.254427,1.29425 -0.457964,0.87611 -0.457964,2.21018 l -0.696894,-0.83629 q 0.11944,-1.2146 0.438045,-2.2699 0.318581,-1.07522 0.876103,-1.87169 0.577441,-0.81636 1.413718,-1.27433 0.836277,-0.47788 1.991147,-0.47788 0.378313,0 0.756639,0.0598 0.398231,0.0398 0.736719,0.11945 z m 1.533159,0 1.65266,0.31858 1.672554,-0.31858 v 11.4491 h -3.325214 z m 1.65266,-1.17477 q -0.896022,0 -1.473451,-0.45797 -0.557523,-0.47788 -0.557523,-1.25443 0,-0.79646 0.557523,-1.25442 0.577429,-0.47788 1.473451,-0.47788 0.915928,0 1.47345,0.47788 0.55751,0.45796 0.55751,1.25442 0,0.77655 -0.55751,1.25443 -0.557522,0.45797 -1.47345,0.45797 z m 3.643777,1.29424 h 3.32522 l 0.71681,4.3208 v 7.00883 h -3.32521 v -7.50663 z m 8.36283,-0.29868 q 1.61282,0 2.74777,0.65708 1.13498,0.63717 1.73231,1.83186 0.59735,1.19468 0.59735,2.84734 v 6.29203 h -3.32522 v -5.79424 q 0,-1.53319 -0.73672,-2.30974 -0.73673,-0.79644 -2.15045,-0.79644 -0.95575,0 -1.69248,0.43803 -0.71681,0.41815 -1.11504,1.17479 -0.37832,0.75663 -0.37832,1.81195 l -1.09512,-0.57744 q 0.1991,-1.79204 0.95574,-3.02654 0.75664,-1.23451 1.91151,-1.8916 1.15486,-0.65708 2.54867,-0.65708 z m 17.86058,11.62831 -0.47789,-4.28097 0.63718,-1.35398 -0.61726,-1.65265 0.89601,-8.04423 h 3.44469 l -1.09513,9.43803 0.65707,5.8938 z m 0.81637,-5.65486 q -0.3186,1.79202 -1.17478,3.14602 -0.83629,1.33406 -2.13053,2.07078 -1.27434,0.73673 -2.86725,0.73673 -1.65266,0 -2.92699,-0.73673 -1.27433,-0.75664 -1.99115,-2.0907 -0.69689,-1.35397 -0.69689,-3.1261 0,-1.79203 0.69689,-3.1261 0.71682,-1.35399 1.99115,-2.09071 1.27433,-0.75664 2.92699,-0.75664 1.59291,0 2.86725,0.73674 1.29424,0.73671 2.15044,2.09069 0.85619,1.33408 1.15487,3.14602 z m -8.42255,0 q 0,0.99558 0.39822,1.7522 0.41814,0.75664 1.13496,1.1947 0.71681,0.41813 1.65264,0.41813 0.93584,0 1.75221,-0.41813 0.83629,-0.43806 1.47345,-1.1947 0.63717,-0.75662 0.99558,-1.7522 -0.35841,-0.99557 -0.99558,-1.75221 -0.63716,-0.77655 -1.47345,-1.1947 -0.81637,-0.43804 -1.75221,-0.43804 -0.93583,0 -1.65264,0.43804 -0.71682,0.41815 -1.13496,1.1947 -0.39822,0.75664 -0.39822,1.75221 z m 19.61275,5.95353 q -2.01106,0 -3.60398,-0.73673 -1.573,-0.75664 -2.48893,-2.11061 -0.89601,-1.35399 -0.89601,-3.14602 0,-1.77211 0.85619,-3.10619 0.87609,-1.33407 2.38937,-2.07079 1.51328,-0.75664 3.44469,-0.75664 1.97123,0 3.38495,0.87611 1.41372,0.85619 2.17034,2.4292 0.77656,1.57301 0.77656,3.70353 h -10.35397 v -2.21017 h 8.56194 l -1.29425,0.79646 q -0.0796,-0.99558 -0.4978,-1.69247 -0.39822,-0.69691 -1.09512,-1.07523 -0.69691,-0.37831 -1.63274,-0.37831 -1.01548,0 -1.77213,0.41814 -0.73672,0.39822 -1.15485,1.13495 -0.39824,0.71682 -0.39824,1.69248 0,1.17478 0.5177,2.01105 0.51769,0.83628 1.51328,1.27434 0.99556,0.43805 2.40928,0.43805 1.27433,0 2.56857,-0.3584 1.29425,-0.37832 2.32966,-1.05531 v 2.23009 q -1.11505,0.79645 -2.6084,1.25441 -1.47345,0.43806 -3.12611,0.43806 z m 7.42691,-11.6283 h 3.36505 l 0.67699,4.08185 v 7.24778 h -3.32522 v -7.60618 z m 9.55751,-0.11945 v 2.86726 q -0.51769,-0.11944 -1.03539,-0.17921 -0.5177,-0.0598 -0.97566,-0.0598 -0.99558,0 -1.79203,0.41813 -0.79647,0.41815 -1.25443,1.29427 -0.45796,0.87609 -0.45796,2.21016 l -0.6969,-0.83627 q 0.11944,-1.2146 0.43805,-2.26992 0.31858,-1.07522 0.8761,-1.87169 0.57744,-0.81636 1.41372,-1.27433 0.83628,-0.47787 1.99114,-0.47787 0.37832,0 0.75665,0.0598 0.39823,0.0398 0.73671,0.11944 z m 21.48442,4.97787 q -0.0199,1.35398 -0.53759,2.5885 -0.4978,1.2146 -1.43364,2.17034 -0.93584,0.93585 -2.30973,1.47345 -1.37388,0.53761 -3.18583,0.53761 -1.75221,0 -3.28539,-0.5177 -1.51328,-0.5376 -2.66815,-1.53318 -1.13496,-0.99557 -1.77211,-2.4292 -0.63718,-1.45354 -0.63718,-3.28539 0,-1.83186 0.63718,-3.26548 0.65707,-1.45354 1.81194,-2.44911 1.15487,-0.99558 2.70796,-1.51327 1.5531,-0.53762 3.38496,-0.53762 2.38936,0 4.14158,0.75663 1.7522,0.73674 2.82742,2.05088 1.09513,1.31416 1.35399,3.00664 h -3.40486 q -0.19912,-0.91593 -0.87611,-1.573 -0.65708,-0.65708 -1.69248,-1.01548 -1.01548,-0.35841 -2.34954,-0.35841 -1.57301,0 -2.72788,0.57743 -1.13496,0.55752 -1.77213,1.65265 -0.61725,1.09513 -0.61725,2.66814 0,1.573 0.65708,2.68804 0.65707,1.11504 1.87167,1.71239 1.21461,0.57744 2.86726,0.57744 1.61284,0 2.82743,-0.4978 1.2146,-0.5177 1.91151,-1.43362 0.7168,-0.93583 0.81636,-2.21018 z m -6.55087,1.37389 v -2.44911 h 7.74557 v 7.54645 h -2.4292 l -0.45797,-6.05309 0.69691,0.95575 z m 10.17476,-6.35176 1.65265,0.31858 1.67257,-0.31858 v 11.4491 h -3.32522 z m 1.65265,-1.17477 q -0.89602,0 -1.47345,-0.45796 -0.55752,-0.47789 -0.55752,-1.25444 0,-0.79645 0.55752,-1.25442 0.57743,-0.47788 1.47345,-0.47788 0.91593,0 1.47345,0.47788 0.55752,0.45797 0.55752,1.25442 0,0.77655 -0.55752,1.25444 -0.55752,0.45796 -1.47345,0.45796 z m 4.1814,-2.70796 h 3.32521 v 15.33183 h -3.32521 z m 5.83404,0 h 3.32522 v 15.33183 h -3.32522 z"
       id="text1"
       aria-label="Birinder Gill" />
    <g
       id="g9">
      <path
         id="path12"
         d="m 0,0 h -16.667 c 0,27.614 -22.385,50 -50,50 v 0 c 0,9.205 7.462,16.667 16.667,16.667 h 16.258 c 9.027,0 16.724,7.007 17.063,16.027 C -16.323,92.176 -23.93,100 -33.333,100 h -39.409 c -8.116,0 -15.025,-5.8 -16.416,-13.792 l -6.617,-37.775 c -6.85,-1.758 -13.142,-4.941 -18.533,-9.216 l 8.725,49.866 c 2.8,15.984 16.608,27.584 32.841,27.584 h 38.754 c 18.416,0 33.845,-14.657 33.987,-33.073 C 0.117,68.297 -10.129,55.323 -24.125,51.292 -9.392,39.058 0,20.6 0,0"
         style="fill:#2559a1;fill-opacity:1;fill-rule:nonzero;stroke:none"
         transform="matrix(0.20665582,0,0,-0.20665582,45.159393,149.77455)"
         clip-path="url(#clipPath13)" />
      <path
         id="path14"
         d="M 0,0 V 0 C 0,-9.205 -7.462,-16.667 -16.667,-16.667 H -82.71 c -18.205,0 -33.522,14.338 -33.947,32.539 C -117.096,34.617 -101.981,50 -83.333,50 h 16.666 c 12.317,0 23.092,-6.708 28.867,-16.667 h -45.125 c -9.027,0 -16.724,-7.007 -17.063,-16.027 C -100.344,7.824 -92.737,0 -83.333,0 Z"
         style="fill:#000000;fill-opacity:1;fill-rule:nonzero;stroke:none"
         transform="matrix(0.20665582,0,0,-0.20665582,45.159393,153.21882)"
         clip-path="url(#clipPath15)" />
    </g>
  </g>
</svg>
